<svg width="1920" height="1080" xmlns="http://www.w3.org/2000/svg" preserveAspectRatio="xMidYMid meet">
    <defs>
        <clipPath id="animationMask_rs37ignMjf">
            <rect id="svg_1" y="0" x="0" height="1080" width="1920"/>
        </clipPath>
        <clipPath id="cp_m055SUW3">
            <path id="svg_2" d="m0,0l1920,0l0,1350l-1920,0l0,-1350z"/>
        </clipPath>
        <clipPath id="cp_j1ls7Puw">
            <path id="svg_3" d="m0,0l1920,0l0,1350l-1920,0l0,-1350z"/>
        </clipPath>
        <clipPath id="cp_v4RqGu23">
            <path id="svg_4" d="m0,0l1920,0l0,1350l-1920,0l0,-1350z"/>
        </clipPath>
        <clipPath id="cp_XQmKKeog">
            <path id="svg_5" d="m0,0l1920,0l0,1080l-1920,0l0,-1080z"/>
        </clipPath>
    </defs>
    <g>
        <title>background</title>
        <rect fill="none" id="canvas_background" height="402" width="582" y="-1" x="-1"/>
    </g>
    <g>
        <title>Layer 1</title>
        <g id="svg_6" clip-path="url(#animationMask_rs37ignMjf)">
            <g id="svg_7" transform="matrix(1,0,0,1,960,540) "/>
            <g id="svg_10" clip-path="url(#cp_XQmKKeog)">
                <g id="svg_11" transform="matrix(4,0,0,4,1778.4699999999998,445.47) ">
                    <g id="svg_12" transform="matrix(1,0,0,1,205.001,86.499) ">
                        <path id="svg_13" d="m76.777,22.605c-1.601,-0.429 -3.245,0.521 -3.674,2.121c-0.43,1.601 0.521,3.245 2.121,3.674c1.6,0.429 3.245,-0.521 3.674,-2.121c0.429,-1.6 -0.52,-3.246 -2.121,-3.674zm-144,36.999c-1.601,-0.428 -3.246,0.522 -3.674,2.122c-0.428,1.6 0.521,3.245 2.121,3.674c1.601,0.429 3.246,-0.521 3.674,-2.121c0.43,-1.601 -0.521,-3.246 -2.121,-3.675zm105,-145.999c-1.601,-0.43 -3.245,0.521 -3.674,2.121c-0.43,1.601 0.521,3.245 2.121,3.674c1.6,0.429 3.245,-0.521 3.674,-2.121c0.429,-1.6 -0.52,-3.246 -2.121,-3.674zm154,111c-1.601,-0.429 -3.245,0.521 -3.674,2.121c-0.43,1.601 0.52,3.245 2.121,3.674c1.601,0.429 3.245,-0.521 3.674,-2.121c0.429,-1.6 -0.52,-3.246 -2.121,-3.674zm-56,-71c-1.601,-0.429 -3.245,0.521 -3.674,2.121c-0.43,1.601 0.521,3.245 2.121,3.674c1.6,0.429 3.245,-0.521 3.674,-2.121c0.429,-1.6 -0.52,-3.246 -2.121,-3.674zm67,39c-1.601,-0.429 -3.245,0.521 -3.674,2.121c-0.43,1.601 0.521,3.245 2.121,3.674c1.6,0.429 3.245,-0.521 3.674,-2.121c0.429,-1.6 -0.52,-3.246 -2.121,-3.674zm-289.207,38.736c-1.973,-1.066 -3.86,-1.661 -5.684,-1.91c-0.329,-1.783 -0.912,-3.614 -1.816,-5.505c-0.128,-0.238 -0.404,-0.428 -0.596,-0.426c-0.19,-0.002 -0.479,0.19 -0.626,0.429c-1.055,1.957 -1.649,3.83 -1.9,5.641c-1.908,0.353 -3.763,1.014 -5.591,1.845c-0.196,0.105 -0.356,0.358 -0.357,0.555c0.002,0.195 0.158,0.469 0.347,0.597c1.836,1.073 3.749,1.739 5.737,2.004c0.353,1.902 1.01,3.751 1.837,5.572c0.105,0.196 0.358,0.357 0.553,0.358c0.195,-0.002 0.468,-0.158 0.596,-0.348c1.075,-1.846 1.74,-3.769 2.001,-5.767c1.782,-0.33 3.612,-0.914 5.503,-1.82c0.237,-0.129 0.427,-0.404 0.425,-0.597c0.002,-0.191 -0.19,-0.481 -0.429,-0.628zm276.429,-25.841c0,-3.313 -2.688,-6 -6,-6c-3.313,0 -6,2.687 -6,6c0,3.313 2.687,6 6,6c3.312,0 6,-2.686 6,-6zm-6,2c-1.103,0 -2,-0.897 -2,-2c0,-1.103 0.897,-2 2,-2c1.103,0 2,0.897 2,2c0,1.103 -0.897,2 -2,2zm-135,-77c-3.313,0 -6,2.687 -6,6c0,3.313 2.687,6 6,6c3.312,0 6,-2.687 6,-6c0,-3.313 -2.688,-6 -6,-6zm0,8c-1.103,0 -2,-0.897 -2,-2c0,-1.103 0.897,-2 2,-2c1.103,0 2,0.897 2,2c0,1.103 -0.897,2 -2,2zm-206,105.999c-4.418,0 -8,3.582 -8,8c0,4.418 3.582,8 8,8c4.418,0 8,-3.582 8,-8c0,-4.418 -3.582,-8 -8,-8zm0,12c-2.206,0 -4,-1.794 -4,-4c0,-2.206 1.794,-4 4,-4c2.206,0 4,1.794 4,4c0,2.206 -1.794,4 -4,4zm-42,18c-3.313,0 -6,2.687 -6,6c0,3.312 2.687,6 6,6c3.313,0 6,-2.688 6,-6c0,-3.313 -2.687,-6 -6,-6zm0,8c-1.103,0 -2,-0.897 -2,-2c0,-1.103 0.897,-2 2,-2c1.103,0 2,0.897 2,2c0,1.103 -0.897,2 -2,2z" fill="rgb(221,209,198)"/>
                    </g>
                </g>
                <g id="svg_14" transform="matrix(4,0,0,4,2075,577) ">
                    <g id="svg_15" transform="matrix(1,0,0,1,218.338,108.499) ">
                        <path id="svg_16" d="m122.663,54.5c-3.313,0 -6,2.687 -6,6c0,3.313 2.687,6 6,6c3.312,0 6,-2.687 6,-6c0,-3.313 -2.688,-6 -6,-6zm0,8c-1.103,0 -2,-0.897 -2,-2c0,-1.102 0.897,-2 2,-2c1.102,0 2,0.898 2,2c0,1.103 -0.898,2 -2,2zm-247.222,-7.895c-1.602,-0.429 -3.246,0.521 -3.674,2.121c-0.429,1.6 0.521,3.245 2.122,3.675c1.6,0.428 3.245,-0.522 3.674,-2.122c0.429,-1.601 -0.521,-3.246 -2.122,-3.674zm45.222,-121.105c-3.313,0 -6,2.687 -6,6c0,3.313 2.687,6 6,6c3.313,0 6,-2.687 6,-6c0,-3.313 -2.687,-6 -6,-6zm0,8c-1.103,0 -2,-0.897 -2,-2c0,-1.103 0.897,-2 2,-2c1.103,0 2,0.897 2,2c0,1.103 -0.897,2 -2,2zm165.57,16.841c-1.974,-1.066 -3.86,-1.661 -5.686,-1.91c-0.329,-1.783 -0.911,-3.614 -1.814,-5.505c-0.127,-0.238 -0.404,-0.428 -0.598,-0.426c-0.188,-0.002 -0.478,0.19 -0.627,0.429c-1.054,1.957 -1.646,3.83 -1.897,5.641c-1.908,0.353 -3.764,1.014 -5.591,1.845c-0.195,0.105 -0.356,0.358 -0.357,0.555c0.002,0.195 0.157,0.469 0.346,0.597c1.836,1.073 3.748,1.739 5.737,2.004c0.353,1.902 1.011,3.751 1.839,5.573c0.105,0.195 0.357,0.356 0.552,0.357c0.196,-0.002 0.468,-0.158 0.596,-0.348c1.076,-1.846 1.74,-3.769 2.003,-5.767c1.782,-0.33 3.61,-0.914 5.501,-1.82c0.237,-0.128 0.429,-0.404 0.427,-0.597c0.001,-0.191 -0.192,-0.481 -0.431,-0.628z" fill="rgb(255,173,76)"/>
                    </g>
                </g>
                <g id="svg_17" transform="matrix(4,0,0,4,1526.7226053551003,387.3692584692619) ">
                    <g id="svg_18" transform="matrix(1,0,0,1,205.001,86.499) ">
                        <path id="svg_19" d="m76.777,22.605c-1.601,-0.429 -3.245,0.521 -3.674,2.121c-0.43,1.601 0.521,3.245 2.121,3.674c1.6,0.429 3.245,-0.521 3.674,-2.121c0.429,-1.6 -0.52,-3.246 -2.121,-3.674zm-144,36.999c-1.601,-0.428 -3.246,0.522 -3.674,2.122c-0.428,1.6 0.521,3.245 2.121,3.674c1.601,0.429 3.246,-0.521 3.674,-2.121c0.43,-1.601 -0.521,-3.246 -2.121,-3.675zm105,-145.999c-1.601,-0.43 -3.245,0.521 -3.674,2.121c-0.43,1.601 0.521,3.245 2.121,3.674c1.6,0.429 3.245,-0.521 3.674,-2.121c0.429,-1.6 -0.52,-3.246 -2.121,-3.674zm154,111c-1.601,-0.429 -3.245,0.521 -3.674,2.121c-0.43,1.601 0.52,3.245 2.121,3.674c1.601,0.429 3.245,-0.521 3.674,-2.121c0.429,-1.6 -0.52,-3.246 -2.121,-3.674zm-56,-71c-1.601,-0.429 -3.245,0.521 -3.674,2.121c-0.43,1.601 0.521,3.245 2.121,3.674c1.6,0.429 3.245,-0.521 3.674,-2.121c0.429,-1.6 -0.52,-3.246 -2.121,-3.674zm67,39c-1.601,-0.429 -3.245,0.521 -3.674,2.121c-0.43,1.601 0.521,3.245 2.121,3.674c1.6,0.429 3.245,-0.521 3.674,-2.121c0.429,-1.6 -0.52,-3.246 -2.121,-3.674zm-289.207,38.736c-1.973,-1.066 -3.86,-1.661 -5.684,-1.91c-0.329,-1.783 -0.912,-3.614 -1.816,-5.505c-0.128,-0.238 -0.404,-0.428 -0.596,-0.426c-0.19,-0.002 -0.479,0.19 -0.626,0.429c-1.055,1.957 -1.649,3.83 -1.9,5.641c-1.908,0.353 -3.763,1.014 -5.591,1.845c-0.196,0.105 -0.356,0.358 -0.357,0.555c0.002,0.195 0.158,0.469 0.347,0.597c1.836,1.073 3.749,1.739 5.737,2.004c0.353,1.902 1.01,3.751 1.837,5.572c0.105,0.196 0.358,0.357 0.553,0.358c0.195,-0.002 0.468,-0.158 0.596,-0.348c1.075,-1.846 1.74,-3.769 2.001,-5.767c1.782,-0.33 3.612,-0.914 5.503,-1.82c0.237,-0.129 0.427,-0.404 0.425,-0.597c0.002,-0.191 -0.19,-0.481 -0.429,-0.628zm276.429,-25.841c0,-3.313 -2.688,-6 -6,-6c-3.313,0 -6,2.687 -6,6c0,3.313 2.687,6 6,6c3.312,0 6,-2.686 6,-6zm-6,2c-1.103,0 -2,-0.897 -2,-2c0,-1.103 0.897,-2 2,-2c1.103,0 2,0.897 2,2c0,1.103 -0.897,2 -2,2zm-135,-77c-3.313,0 -6,2.687 -6,6c0,3.313 2.687,6 6,6c3.312,0 6,-2.687 6,-6c0,-3.313 -2.688,-6 -6,-6zm0,8c-1.103,0 -2,-0.897 -2,-2c0,-1.103 0.897,-2 2,-2c1.103,0 2,0.897 2,2c0,1.103 -0.897,2 -2,2zm-206,105.999c-4.418,0 -8,3.582 -8,8c0,4.418 3.582,8 8,8c4.418,0 8,-3.582 8,-8c0,-4.418 -3.582,-8 -8,-8zm0,12c-2.206,0 -4,-1.794 -4,-4c0,-2.206 1.794,-4 4,-4c2.206,0 4,1.794 4,4c0,2.206 -1.794,4 -4,4zm-42,18c-3.313,0 -6,2.687 -6,6c0,3.312 2.687,6 6,6c3.313,0 6,-2.688 6,-6c0,-3.313 -2.687,-6 -6,-6zm0,8c-1.103,0 -2,-0.897 -2,-2c0,-1.103 0.897,-2 2,-2c1.103,0 2,0.897 2,2c0,1.103 -0.897,2 -2,2z" fill="rgb(221,209,198)"/>
                    </g>
                </g>
                <g id="svg_20" transform="matrix(4,0,0,4,1769.9625461586866,497.9331447709791) ">
                    <g id="svg_21" transform="matrix(1,0,0,1,218.338,108.499) ">
                        <path id="svg_22" d="m122.663,54.5c-3.313,0 -6,2.687 -6,6c0,3.313 2.687,6 6,6c3.312,0 6,-2.687 6,-6c0,-3.313 -2.688,-6 -6,-6zm0,8c-1.103,0 -2,-0.897 -2,-2c0,-1.102 0.897,-2 2,-2c1.102,0 2,0.898 2,2c0,1.103 -0.898,2 -2,2zm-247.222,-7.895c-1.602,-0.429 -3.246,0.521 -3.674,2.121c-0.429,1.6 0.521,3.245 2.122,3.675c1.6,0.428 3.245,-0.522 3.674,-2.122c0.429,-1.601 -0.521,-3.246 -2.122,-3.674zm45.222,-121.105c-3.313,0 -6,2.687 -6,6c0,3.313 2.687,6 6,6c3.313,0 6,-2.687 6,-6c0,-3.313 -2.687,-6 -6,-6zm0,8c-1.103,0 -2,-0.897 -2,-2c0,-1.103 0.897,-2 2,-2c1.103,0 2,0.897 2,2c0,1.103 -0.897,2 -2,2zm165.57,16.841c-1.974,-1.066 -3.86,-1.661 -5.686,-1.91c-0.329,-1.783 -0.911,-3.614 -1.814,-5.505c-0.127,-0.238 -0.404,-0.428 -0.598,-0.426c-0.188,-0.002 -0.478,0.19 -0.627,0.429c-1.054,1.957 -1.646,3.83 -1.897,5.641c-1.908,0.353 -3.764,1.014 -5.591,1.845c-0.195,0.105 -0.356,0.358 -0.357,0.555c0.002,0.195 0.157,0.469 0.346,0.597c1.836,1.073 3.748,1.739 5.737,2.004c0.353,1.902 1.011,3.751 1.839,5.573c0.105,0.195 0.357,0.356 0.552,0.357c0.196,-0.002 0.468,-0.158 0.596,-0.348c1.076,-1.846 1.74,-3.769 2.003,-5.767c1.782,-0.33 3.61,-0.914 5.501,-1.82c0.237,-0.128 0.429,-0.404 0.427,-0.597c0.001,-0.191 -0.192,-0.481 -0.431,-0.628z" fill="rgb(255,173,76)"/>
                    </g>
                </g>
                <g id="svg_23" transform="matrix(4,0,0,4,368.0295138274719,122.37648809325367) ">
                    <g id="svg_24" transform="matrix(1,0,0,1,205.001,86.499) ">
                        <path id="svg_25" d="m76.777,22.605c-1.601,-0.429 -3.245,0.521 -3.674,2.121c-0.43,1.601 0.521,3.245 2.121,3.674c1.6,0.429 3.245,-0.521 3.674,-2.121c0.429,-1.6 -0.52,-3.246 -2.121,-3.674zm-144,36.999c-1.601,-0.428 -3.246,0.522 -3.674,2.122c-0.428,1.6 0.521,3.245 2.121,3.674c1.601,0.429 3.246,-0.521 3.674,-2.121c0.43,-1.601 -0.521,-3.246 -2.121,-3.675zm105,-145.999c-1.601,-0.43 -3.245,0.521 -3.674,2.121c-0.43,1.601 0.521,3.245 2.121,3.674c1.6,0.429 3.245,-0.521 3.674,-2.121c0.429,-1.6 -0.52,-3.246 -2.121,-3.674zm154,111c-1.601,-0.429 -3.245,0.521 -3.674,2.121c-0.43,1.601 0.52,3.245 2.121,3.674c1.601,0.429 3.245,-0.521 3.674,-2.121c0.429,-1.6 -0.52,-3.246 -2.121,-3.674zm-56,-71c-1.601,-0.429 -3.245,0.521 -3.674,2.121c-0.43,1.601 0.521,3.245 2.121,3.674c1.6,0.429 3.245,-0.521 3.674,-2.121c0.429,-1.6 -0.52,-3.246 -2.121,-3.674zm67,39c-1.601,-0.429 -3.245,0.521 -3.674,2.121c-0.43,1.601 0.521,3.245 2.121,3.674c1.6,0.429 3.245,-0.521 3.674,-2.121c0.429,-1.6 -0.52,-3.246 -2.121,-3.674zm-289.207,38.736c-1.973,-1.066 -3.86,-1.661 -5.684,-1.91c-0.329,-1.783 -0.912,-3.614 -1.816,-5.505c-0.128,-0.238 -0.404,-0.428 -0.596,-0.426c-0.19,-0.002 -0.479,0.19 -0.626,0.429c-1.055,1.957 -1.649,3.83 -1.9,5.641c-1.908,0.353 -3.763,1.014 -5.591,1.845c-0.196,0.105 -0.356,0.358 -0.357,0.555c0.002,0.195 0.158,0.469 0.347,0.597c1.836,1.073 3.749,1.739 5.737,2.004c0.353,1.902 1.01,3.751 1.837,5.572c0.105,0.196 0.358,0.357 0.553,0.358c0.195,-0.002 0.468,-0.158 0.596,-0.348c1.075,-1.846 1.74,-3.769 2.001,-5.767c1.782,-0.33 3.612,-0.914 5.503,-1.82c0.237,-0.129 0.427,-0.404 0.425,-0.597c0.002,-0.191 -0.19,-0.481 -0.429,-0.628zm276.429,-25.841c0,-3.313 -2.688,-6 -6,-6c-3.313,0 -6,2.687 -6,6c0,3.313 2.687,6 6,6c3.312,0 6,-2.686 6,-6zm-6,2c-1.103,0 -2,-0.897 -2,-2c0,-1.103 0.897,-2 2,-2c1.103,0 2,0.897 2,2c0,1.103 -0.897,2 -2,2zm-135,-77c-3.313,0 -6,2.687 -6,6c0,3.313 2.687,6 6,6c3.312,0 6,-2.687 6,-6c0,-3.313 -2.688,-6 -6,-6zm0,8c-1.103,0 -2,-0.897 -2,-2c0,-1.103 0.897,-2 2,-2c1.103,0 2,0.897 2,2c0,1.103 -0.897,2 -2,2zm-206,105.999c-4.418,0 -8,3.582 -8,8c0,4.418 3.582,8 8,8c4.418,0 8,-3.582 8,-8c0,-4.418 -3.582,-8 -8,-8zm0,12c-2.206,0 -4,-1.794 -4,-4c0,-2.206 1.794,-4 4,-4c2.206,0 4,1.794 4,4c0,2.206 -1.794,4 -4,4zm-42,18c-3.313,0 -6,2.687 -6,6c0,3.312 2.687,6 6,6c3.313,0 6,-2.688 6,-6c0,-3.313 -2.687,-6 -6,-6zm0,8c-1.103,0 -2,-0.897 -2,-2c0,-1.103 0.897,-2 2,-2c1.103,0 2,0.897 2,2c0,1.103 -0.897,2 -2,2z" fill="rgb(221,209,198)"/>
                    </g>
                </g>
                <g id="svg_26" transform="matrix(4,0,0,4,367.2691301964676,131.77173627079344) ">
                    <g id="svg_27" transform="matrix(1,0,0,1,218.338,108.499) ">
                        <path id="svg_28" d="m122.663,54.5c-3.313,0 -6,2.687 -6,6c0,3.313 2.687,6 6,6c3.312,0 6,-2.687 6,-6c0,-3.313 -2.688,-6 -6,-6zm0,8c-1.103,0 -2,-0.897 -2,-2c0,-1.102 0.897,-2 2,-2c1.102,0 2,0.898 2,2c0,1.103 -0.898,2 -2,2zm-247.222,-7.895c-1.602,-0.429 -3.246,0.521 -3.674,2.121c-0.429,1.6 0.521,3.245 2.122,3.675c1.6,0.428 3.245,-0.522 3.674,-2.122c0.429,-1.601 -0.521,-3.246 -2.122,-3.674zm45.222,-121.105c-3.313,0 -6,2.687 -6,6c0,3.313 2.687,6 6,6c3.313,0 6,-2.687 6,-6c0,-3.313 -2.687,-6 -6,-6zm0,8c-1.103,0 -2,-0.897 -2,-2c0,-1.103 0.897,-2 2,-2c1.103,0 2,0.897 2,2c0,1.103 -0.897,2 -2,2zm165.57,16.841c-1.974,-1.066 -3.86,-1.661 -5.686,-1.91c-0.329,-1.783 -0.911,-3.614 -1.814,-5.505c-0.127,-0.238 -0.404,-0.428 -0.598,-0.426c-0.188,-0.002 -0.478,0.19 -0.627,0.429c-1.054,1.957 -1.646,3.83 -1.897,5.641c-1.908,0.353 -3.764,1.014 -5.591,1.845c-0.195,0.105 -0.356,0.358 -0.357,0.555c0.002,0.195 0.157,0.469 0.346,0.597c1.836,1.073 3.748,1.739 5.737,2.004c0.353,1.902 1.011,3.751 1.839,5.573c0.105,0.195 0.357,0.356 0.552,0.357c0.196,-0.002 0.468,-0.158 0.596,-0.348c1.076,-1.846 1.74,-3.769 2.003,-5.767c1.782,-0.33 3.61,-0.914 5.501,-1.82c0.237,-0.128 0.429,-0.404 0.427,-0.597c0.001,-0.191 -0.192,-0.481 -0.431,-0.628z" fill="rgb(255,173,76)"/>
                    </g>
                </g>
                <g id="svg_29" transform="matrix(4,0,0,4,-790.7295381982722,-142.3278062579118) ">
                    <g id="svg_30" transform="matrix(1,0,0,1,205.001,86.499) ">
                        <path id="svg_31" d="m76.777,22.605c-1.601,-0.429 -3.245,0.521 -3.674,2.121c-0.43,1.601 0.521,3.245 2.121,3.674c1.6,0.429 3.245,-0.521 3.674,-2.121c0.429,-1.6 -0.52,-3.246 -2.121,-3.674zm-144,36.999c-1.601,-0.428 -3.246,0.522 -3.674,2.122c-0.428,1.6 0.521,3.245 2.121,3.674c1.601,0.429 3.246,-0.521 3.674,-2.121c0.43,-1.601 -0.521,-3.246 -2.121,-3.675zm105,-145.999c-1.601,-0.43 -3.245,0.521 -3.674,2.121c-0.43,1.601 0.521,3.245 2.121,3.674c1.6,0.429 3.245,-0.521 3.674,-2.121c0.429,-1.6 -0.52,-3.246 -2.121,-3.674zm154,111c-1.601,-0.429 -3.245,0.521 -3.674,2.121c-0.43,1.601 0.52,3.245 2.121,3.674c1.601,0.429 3.245,-0.521 3.674,-2.121c0.429,-1.6 -0.52,-3.246 -2.121,-3.674zm-56,-71c-1.601,-0.429 -3.245,0.521 -3.674,2.121c-0.43,1.601 0.521,3.245 2.121,3.674c1.6,0.429 3.245,-0.521 3.674,-2.121c0.429,-1.6 -0.52,-3.246 -2.121,-3.674zm67,39c-1.601,-0.429 -3.245,0.521 -3.674,2.121c-0.43,1.601 0.521,3.245 2.121,3.674c1.6,0.429 3.245,-0.521 3.674,-2.121c0.429,-1.6 -0.52,-3.246 -2.121,-3.674zm-289.207,38.736c-1.973,-1.066 -3.86,-1.661 -5.684,-1.91c-0.329,-1.783 -0.912,-3.614 -1.816,-5.505c-0.128,-0.238 -0.404,-0.428 -0.596,-0.426c-0.19,-0.002 -0.479,0.19 -0.626,0.429c-1.055,1.957 -1.649,3.83 -1.9,5.641c-1.908,0.353 -3.763,1.014 -5.591,1.845c-0.196,0.105 -0.356,0.358 -0.357,0.555c0.002,0.195 0.158,0.469 0.347,0.597c1.836,1.073 3.749,1.739 5.737,2.004c0.353,1.902 1.01,3.751 1.837,5.572c0.105,0.196 0.358,0.357 0.553,0.358c0.195,-0.002 0.468,-0.158 0.596,-0.348c1.075,-1.846 1.74,-3.769 2.001,-5.767c1.782,-0.33 3.612,-0.914 5.503,-1.82c0.237,-0.129 0.427,-0.404 0.425,-0.597c0.002,-0.191 -0.19,-0.481 -0.429,-0.628zm276.429,-25.841c0,-3.313 -2.688,-6 -6,-6c-3.313,0 -6,2.687 -6,6c0,3.313 2.687,6 6,6c3.312,0 6,-2.686 6,-6zm-6,2c-1.103,0 -2,-0.897 -2,-2c0,-1.103 0.897,-2 2,-2c1.103,0 2,0.897 2,2c0,1.103 -0.897,2 -2,2zm-135,-77c-3.313,0 -6,2.687 -6,6c0,3.313 2.687,6 6,6c3.312,0 6,-2.687 6,-6c0,-3.313 -2.688,-6 -6,-6zm0,8c-1.103,0 -2,-0.897 -2,-2c0,-1.103 0.897,-2 2,-2c1.103,0 2,0.897 2,2c0,1.103 -0.897,2 -2,2zm-206,105.999c-4.418,0 -8,3.582 -8,8c0,4.418 3.582,8 8,8c4.418,0 8,-3.582 8,-8c0,-4.418 -3.582,-8 -8,-8zm0,12c-2.206,0 -4,-1.794 -4,-4c0,-2.206 1.794,-4 4,-4c2.206,0 4,1.794 4,4c0,2.206 -1.794,4 -4,4zm-42,18c-3.313,0 -6,2.687 -6,6c0,3.312 2.687,6 6,6c3.313,0 6,-2.688 6,-6c0,-3.313 -2.687,-6 -6,-6zm0,8c-1.103,0 -2,-0.897 -2,-2c0,-1.103 0.897,-2 2,-2c1.103,0 2,0.897 2,2c0,1.103 -0.897,2 -2,2z" fill="rgb(221,209,198)"/>
                    </g>
                </g>
                <g id="svg_32" transform="matrix(4,0,0,4,-1035.3823722273328,-234.55027310263668) ">
                    <g id="svg_33" transform="matrix(1,0,0,1,218.338,108.499) ">
                        <path id="svg_34" d="m122.663,54.5c-3.313,0 -6,2.687 -6,6c0,3.313 2.687,6 6,6c3.312,0 6,-2.687 6,-6c0,-3.313 -2.688,-6 -6,-6zm0,8c-1.103,0 -2,-0.897 -2,-2c0,-1.102 0.897,-2 2,-2c1.102,0 2,0.898 2,2c0,1.103 -0.898,2 -2,2zm-247.222,-7.895c-1.602,-0.429 -3.246,0.521 -3.674,2.121c-0.429,1.6 0.521,3.245 2.122,3.675c1.6,0.428 3.245,-0.522 3.674,-2.122c0.429,-1.601 -0.521,-3.246 -2.122,-3.674zm45.222,-121.105c-3.313,0 -6,2.687 -6,6c0,3.313 2.687,6 6,6c3.313,0 6,-2.687 6,-6c0,-3.313 -2.687,-6 -6,-6zm0,8c-1.103,0 -2,-0.897 -2,-2c0,-1.103 0.897,-2 2,-2c1.103,0 2,0.897 2,2c0,1.103 -0.897,2 -2,2zm165.57,16.841c-1.974,-1.066 -3.86,-1.661 -5.686,-1.91c-0.329,-1.783 -0.911,-3.614 -1.814,-5.505c-0.127,-0.238 -0.404,-0.428 -0.598,-0.426c-0.188,-0.002 -0.478,0.19 -0.627,0.429c-1.054,1.957 -1.646,3.83 -1.897,5.641c-1.908,0.353 -3.764,1.014 -5.591,1.845c-0.195,0.105 -0.356,0.358 -0.357,0.555c0.002,0.195 0.157,0.469 0.346,0.597c1.836,1.073 3.748,1.739 5.737,2.004c0.353,1.902 1.011,3.751 1.839,5.573c0.105,0.195 0.357,0.356 0.552,0.357c0.196,-0.002 0.468,-0.158 0.596,-0.348c1.076,-1.846 1.74,-3.769 2.003,-5.767c1.782,-0.33 3.61,-0.914 5.501,-1.82c0.237,-0.128 0.429,-0.404 0.427,-0.597c0.001,-0.191 -0.192,-0.481 -0.431,-0.628z" fill="rgb(255,173,76)"/>
                    </g>
                </g>
                <g id="svg_35" transform="matrix(4,0,0,4,-1341.4935013933632,-268.22761386549917) ">
                    <g id="svg_36" transform="matrix(1,0,0,1,205.001,86.499) ">
                        <path id="svg_37" d="m76.777,22.605c-1.601,-0.429 -3.245,0.521 -3.674,2.121c-0.43,1.601 0.521,3.245 2.121,3.674c1.6,0.429 3.245,-0.521 3.674,-2.121c0.429,-1.6 -0.52,-3.246 -2.121,-3.674zm-144,36.999c-1.601,-0.428 -3.246,0.522 -3.674,2.122c-0.428,1.6 0.521,3.245 2.121,3.674c1.601,0.429 3.246,-0.521 3.674,-2.121c0.43,-1.601 -0.521,-3.246 -2.121,-3.675zm105,-145.999c-1.601,-0.43 -3.245,0.521 -3.674,2.121c-0.43,1.601 0.521,3.245 2.121,3.674c1.6,0.429 3.245,-0.521 3.674,-2.121c0.429,-1.6 -0.52,-3.246 -2.121,-3.674zm154,111c-1.601,-0.429 -3.245,0.521 -3.674,2.121c-0.43,1.601 0.52,3.245 2.121,3.674c1.601,0.429 3.245,-0.521 3.674,-2.121c0.429,-1.6 -0.52,-3.246 -2.121,-3.674zm-56,-71c-1.601,-0.429 -3.245,0.521 -3.674,2.121c-0.43,1.601 0.521,3.245 2.121,3.674c1.6,0.429 3.245,-0.521 3.674,-2.121c0.429,-1.6 -0.52,-3.246 -2.121,-3.674zm67,39c-1.601,-0.429 -3.245,0.521 -3.674,2.121c-0.43,1.601 0.521,3.245 2.121,3.674c1.6,0.429 3.245,-0.521 3.674,-2.121c0.429,-1.6 -0.52,-3.246 -2.121,-3.674zm-289.207,38.736c-1.973,-1.066 -3.86,-1.661 -5.684,-1.91c-0.329,-1.783 -0.912,-3.614 -1.816,-5.505c-0.128,-0.238 -0.404,-0.428 -0.596,-0.426c-0.19,-0.002 -0.479,0.19 -0.626,0.429c-1.055,1.957 -1.649,3.83 -1.9,5.641c-1.908,0.353 -3.763,1.014 -5.591,1.845c-0.196,0.105 -0.356,0.358 -0.357,0.555c0.002,0.195 0.158,0.469 0.347,0.597c1.836,1.073 3.749,1.739 5.737,2.004c0.353,1.902 1.01,3.751 1.837,5.572c0.105,0.196 0.358,0.357 0.553,0.358c0.195,-0.002 0.468,-0.158 0.596,-0.348c1.075,-1.846 1.74,-3.769 2.001,-5.767c1.782,-0.33 3.612,-0.914 5.503,-1.82c0.237,-0.129 0.427,-0.404 0.425,-0.597c0.002,-0.191 -0.19,-0.481 -0.429,-0.628zm276.429,-25.841c0,-3.313 -2.688,-6 -6,-6c-3.313,0 -6,2.687 -6,6c0,3.313 2.687,6 6,6c3.312,0 6,-2.686 6,-6zm-6,2c-1.103,0 -2,-0.897 -2,-2c0,-1.103 0.897,-2 2,-2c1.103,0 2,0.897 2,2c0,1.103 -0.897,2 -2,2zm-135,-77c-3.313,0 -6,2.687 -6,6c0,3.313 2.687,6 6,6c3.312,0 6,-2.687 6,-6c0,-3.313 -2.688,-6 -6,-6zm0,8c-1.103,0 -2,-0.897 -2,-2c0,-1.103 0.897,-2 2,-2c1.103,0 2,0.897 2,2c0,1.103 -0.897,2 -2,2zm-206,105.999c-4.418,0 -8,3.582 -8,8c0,4.418 3.582,8 8,8c4.418,0 8,-3.582 8,-8c0,-4.418 -3.582,-8 -8,-8zm0,12c-2.206,0 -4,-1.794 -4,-4c0,-2.206 1.794,-4 4,-4c2.206,0 4,1.794 4,4c0,2.206 -1.794,4 -4,4zm-42,18c-3.313,0 -6,2.687 -6,6c0,3.312 2.687,6 6,6c3.313,0 6,-2.688 6,-6c0,-3.313 -2.687,-6 -6,-6zm0,8c-1.103,0 -2,-0.897 -2,-2c0,-1.103 0.897,-2 2,-2c1.103,0 2,0.897 2,2c0,1.103 -0.897,2 -2,2z" fill="rgb(221,209,198)"/>
                    </g>
                </g>
                <g id="svg_38" transform="matrix(4,0,0,4,-1702.1722830617832,-408.3624552233898) ">
                    <g id="svg_39" transform="matrix(1,0,0,1,218.338,108.499) ">
                        <path id="svg_40" d="m122.663,54.5c-3.313,0 -6,2.687 -6,6c0,3.313 2.687,6 6,6c3.312,0 6,-2.687 6,-6c0,-3.313 -2.688,-6 -6,-6zm0,8c-1.103,0 -2,-0.897 -2,-2c0,-1.102 0.897,-2 2,-2c1.102,0 2,0.898 2,2c0,1.103 -0.898,2 -2,2zm-247.222,-7.895c-1.602,-0.429 -3.246,0.521 -3.674,2.121c-0.429,1.6 0.521,3.245 2.122,3.675c1.6,0.428 3.245,-0.522 3.674,-2.122c0.429,-1.601 -0.521,-3.246 -2.122,-3.674zm45.222,-121.105c-3.313,0 -6,2.687 -6,6c0,3.313 2.687,6 6,6c3.313,0 6,-2.687 6,-6c0,-3.313 -2.687,-6 -6,-6zm0,8c-1.103,0 -2,-0.897 -2,-2c0,-1.103 0.897,-2 2,-2c1.103,0 2,0.897 2,2c0,1.103 -0.897,2 -2,2zm165.57,16.841c-1.974,-1.066 -3.86,-1.661 -5.686,-1.91c-0.329,-1.783 -0.911,-3.614 -1.814,-5.505c-0.127,-0.238 -0.404,-0.428 -0.598,-0.426c-0.188,-0.002 -0.478,0.19 -0.627,0.429c-1.054,1.957 -1.646,3.83 -1.897,5.641c-1.908,0.353 -3.764,1.014 -5.591,1.845c-0.195,0.105 -0.356,0.358 -0.357,0.555c0.002,0.195 0.157,0.469 0.346,0.597c1.836,1.073 3.748,1.739 5.737,2.004c0.353,1.902 1.011,3.751 1.839,5.573c0.105,0.195 0.357,0.356 0.552,0.357c0.196,-0.002 0.468,-0.158 0.596,-0.348c1.076,-1.846 1.74,-3.769 2.003,-5.767c1.782,-0.33 3.61,-0.914 5.501,-1.82c0.237,-0.128 0.429,-0.404 0.427,-0.597c0.001,-0.191 -0.192,-0.481 -0.431,-0.628z" fill="rgb(255,173,76)"/>
                    </g>
                </g>
            </g>
            <g id="svg_41" transform="matrix(4,0,0,4,712,-414) ">
                <g id="svg_42" transform="matrix(1,0,0,1,67.502,60.999) ">
                    <path id="svg_43" d="m-28.753,27.118c2.923,3.327 7.151,5.234 11.599,5.234c3.722,0 7.315,-1.341 10.121,-3.776c6.167,-5.352 4.918,-22.432 4.756,-24.362c0,0 -0.115,-1.354 -0.115,-1.354c0,0 -1.352,-0.202 -1.352,-0.202c-0.173,-0.026 -4.3,-0.636 -9.199,-0.636c-6.836,0 -11.661,1.18 -14.343,3.508c-3.097,2.688 -4.957,6.415 -5.234,10.492c-0.277,4.078 1.06,8.019 3.767,11.096zm11.599,1.797c-1.249,0 -2.475,-0.2 -3.64,-0.57c-0.105,-0.597 -0.1,-1.206 0.017,-1.815c0.255,-1.331 1.015,-2.482 2.143,-3.245c1.127,-0.762 2.483,-1.042 3.823,-0.789c2.277,0.432 3.923,2.293 4.125,4.509c-1.92,1.234 -4.159,1.91 -6.468,1.91zm-11.914,-12.661c0.214,-3.16 1.656,-6.05 4.058,-8.134c1.976,-1.715 6.261,-2.66 12.067,-2.66c3,0 5.743,0.249 7.313,0.425c0.257,4.747 0.135,13.688 -2.272,18.22c-1.089,-2.514 -3.37,-4.439 -6.26,-4.987c-2.245,-0.425 -4.525,0.045 -6.417,1.323c-1.891,1.278 -3.168,3.212 -3.596,5.444c-0.044,0.23 -0.064,0.464 -0.089,0.697c-0.683,-0.502 -1.315,-1.08 -1.883,-1.727c-2.099,-2.384 -3.136,-5.439 -2.921,-8.601zm8.054,1.567c0.571,0.183 1.164,0.276 1.759,0.276c0,0 0,0 0,0c2.486,0 4.671,-1.582 5.437,-3.936c0.469,-1.443 0.345,-2.982 -0.351,-4.333c-0.696,-1.351 -1.879,-2.352 -3.332,-2.817c-0.57,-0.183 -1.161,-0.275 -1.756,-0.275c-2.488,0 -4.672,1.581 -5.438,3.935c-0.469,1.443 -0.344,2.982 0.351,4.332c0.696,1.351 1.878,2.352 3.33,2.818zm-0.388,-6.093c0.301,-0.93 1.163,-1.554 2.145,-1.554c0.234,0 0.468,0.037 0.695,0.109c0.574,0.185 1.039,0.579 1.313,1.112c0.274,0.533 0.323,1.14 0.138,1.71c-0.374,1.151 -1.666,1.821 -2.84,1.443c-0.572,-0.184 -1.039,-0.578 -1.313,-1.111c-0.274,-0.532 -0.323,-1.139 -0.138,-1.709zm4.257,24.835c-5.317,0 -10.316,-2.058 -14.076,-5.795c-3.76,-3.736 -5.83,-8.704 -5.83,-13.988c0,-5.284 2.07,-10.253 5.83,-13.989c0,0 -2.446,-2.432 -2.446,-2.432c-4.414,4.387 -6.843,10.218 -6.843,16.421c0,6.202 2.429,12.034 6.843,16.42c4.414,4.385 10.281,6.801 16.522,6.801c6.242,0 12.11,-2.416 16.523,-6.802c0,0 -2.446,-2.432 -2.446,-2.432c-3.76,3.738 -8.759,5.796 -14.077,5.796zm34.125,-73.912c0,0 -2.202,-2.652 -2.202,-2.652c0,0 -42.102,34.546 -42.102,34.546c0,0 2.204,2.651 2.204,2.651c0,0 42.1,-34.545 42.1,-34.545zm-19.38,26.378c0,0 30.768,-25.247 30.768,-25.247c0,0 -2.203,-2.651 -2.203,-2.651c0,0 -30.769,25.247 -30.769,25.247c0,0 2.204,2.651 2.204,2.651zm-9.26,7.596c0,0 5.418,-4.443 5.418,-4.443c0,0 -2.203,-2.652 -2.203,-2.652c0,0 -5.418,4.444 -5.418,4.444c0,0 2.203,2.651 2.203,2.651zm6.732,0.561c0,0 2.202,2.651 2.202,2.651c0,0 13.507,-11.081 13.507,-11.081c0,0 -2.204,-2.652 -2.204,-2.652c0,0 -13.505,11.082 -13.505,11.082zm7.456,9.001c0,0 29.514,-24.217 29.514,-24.217c0,0 -2.203,-2.651 -2.203,-2.651c0,0 -29.514,24.215 -29.514,24.215c0,0 2.203,2.653 2.203,2.653zm35.788,-22.425c0,0 -15.537,12.666 -15.537,12.666c0,0 2.194,2.658 2.194,2.658c0,0 15.537,-12.666 15.537,-12.666c0,0 -2.194,-2.658 -2.194,-2.658zm-32.658,31.174c0,0 14.839,-12.177 14.839,-12.177c0,0 -2.202,-2.651 -2.202,-2.651c0,0 -14.841,12.177 -14.841,12.177c0,0 2.204,2.651 2.204,2.651zm-6.122,13.206c0,0 2.321,2.549 2.321,2.549c0,0 19.928,-17.919 19.928,-17.919c0,0 -2.321,-2.549 -2.321,-2.549c0,0 -19.928,17.919 -19.928,17.919zm26.839,-23.983c0,0 2.202,2.652 2.202,2.652c0,0 5.418,-4.445 5.418,-4.445c0,0 -2.203,-2.651 -2.203,-2.651c0,0 -5.417,4.444 -5.417,4.444z" fill="rgb(219,209,198)"/>
                </g>
            </g>
            <g id="svg_44" transform="matrix(0,0,0,0,1325.7603542988898,615.6419579641902) ">
                <g id="svg_45" transform="matrix(1,0,0,1,332.32,111.252) ">
                    <path id="svg_46" d="m-22.375,23.187c0,0 4.438,-4.439 4.438,-4.439c0,0 -5.437,-5.438 -5.437,-5.438c0,0 0.999,9.877 0.999,9.877zm19.042,-28.121c-1.647,-1.646 -3.575,-1.463 -5.353,0.313c-1.853,1.854 -2.01,3.758 -0.365,5.403c0,0 5.592,5.591 5.592,5.591c1.644,1.647 3.574,1.515 5.429,-0.34c1.776,-1.776 1.932,-3.731 0.288,-5.377c0,0 -5.591,-5.59 -5.591,-5.59zm16.313,-7.235c0,0 4.44,-4.439 4.44,-4.439c0,0 -5.439,-5.438 -5.439,-5.438c0,0 0.999,9.877 0.999,9.877zm17.531,-4.853c0,0 -0.129,-0.128 -0.129,-0.128c1.053,-2.045 0.644,-4.334 -1.222,-6.2c0,0 -1.444,-1.443 -1.444,-1.443c-1.865,-1.865 -4.155,-2.273 -6.199,-1.222c0,0 -7.189,-7.19 -7.189,-7.19c-2.383,-2.381 -5.452,-2.388 -7.823,-0.017c0,0 -1.9,1.899 -1.9,1.899c-1.57,1.571 -2.146,3.215 -1.925,5.498c0,0 1.497,14.333 1.497,14.333c0,0 -0.425,-0.424 -0.425,-0.424c-5.537,-5.537 -13.223,-5.292 -19.122,0.608c-4.897,4.897 -5.921,11 -3.019,16.097c0,0 -2.639,-2.64 -2.639,-2.64c-2.381,-2.381 -5.453,-2.388 -7.824,-0.017c0,0 -1.898,1.899 -1.898,1.899c-1.571,1.571 -2.148,3.215 -1.925,5.498c0,0 1.886,18.068 1.886,18.068c0.147,1.999 0.887,3.102 2.103,4.319c0,0 1.288,1.288 1.288,1.288c2.382,2.382 5.454,2.389 7.825,0.018c0,0 5.206,-5.207 5.206,-5.207c2.37,2.302 5.397,2.281 7.742,-0.063c0,0 1.797,-1.796 1.797,-1.796c2.371,-2.371 2.365,-5.442 -0.018,-7.824c0,0 -0.128,-0.128 -0.128,-0.128c0.216,-0.418 0.355,-0.848 0.447,-1.281c4.405,1.187 9.198,-0.22 13.183,-4.204c4.046,-4.045 5.447,-8.788 4.2,-13.184c1.025,-0.215 2.025,-0.769 2.925,-1.668c0,0 5.206,-5.207 5.206,-5.207c2.37,2.302 5.399,2.281 7.742,-0.063c0,0 1.797,-1.797 1.797,-1.797c2.372,-2.368 2.366,-5.44 -0.015,-7.822zm-38.202,40.316c0,0 -1.797,1.797 -1.797,1.797c-0.795,0.795 -1.31,0.795 -2.109,-0.005c0,0 -2.782,-2.783 -2.782,-2.783c0,0 -8.059,8.058 -8.059,8.058c-0.794,0.795 -1.308,0.795 -2.107,-0.004c0,0 -1.288,-1.289 -1.288,-1.289c-0.723,-0.722 -0.876,-0.979 -0.931,-1.803c0,0 -1.89,-18.106 -1.89,-18.106c-0.104,-1.081 0.048,-1.543 0.767,-2.262c0,0 1.899,-1.899 1.899,-1.899c0.795,-0.795 1.309,-0.794 2.108,0.005c0,0 9.845,9.845 9.845,9.845c0,0 1.436,-1.437 1.436,-1.437c0.796,-0.796 1.311,-0.795 2.109,0.003c0,0 1.443,1.444 1.443,1.444c0.799,0.799 0.8,1.313 0.005,2.108c0,0 -1.439,1.437 -1.439,1.437c0,0 2.784,2.783 2.784,2.783c0.8,0.799 0.8,1.313 0.006,2.108zm13.491,-13.43c-4.429,4.43 -9.524,4.588 -13.508,0.604c0,0 -5.462,-5.462 -5.462,-5.462c-3.934,-3.933 -3.774,-9.027 0.654,-13.456c4.404,-4.403 9.473,-4.536 13.405,-0.604c0,0 5.462,5.462 5.462,5.462c4.011,4.011 3.878,9.028 -0.551,13.456zm21.864,-21.926c0,0 -1.797,1.797 -1.797,1.797c-0.796,0.795 -1.31,0.795 -2.108,-0.004c0,0 -2.783,-2.783 -2.783,-2.783c0,0 -8.058,8.057 -8.058,8.057c-0.795,0.795 -1.311,0.795 -2.108,-0.004c0,0 -1.289,-1.289 -1.289,-1.289c-0.721,-0.722 -0.877,-0.979 -0.929,-1.803c0,0 -1.891,-18.106 -1.891,-18.106c-0.104,-1.081 0.049,-1.543 0.767,-2.262c0,0 1.899,-1.898 1.899,-1.898c0.795,-0.796 1.31,-0.795 2.108,0.004c0,0 9.844,9.845 9.844,9.845c0,0 1.438,-1.437 1.438,-1.437c0.796,-0.796 1.309,-0.795 2.106,0.004c0,0 1.445,1.443 1.445,1.443c0.798,0.799 0.799,1.313 0.003,2.108c0,0 -1.436,1.437 -1.436,1.437c0,0 2.782,2.783 2.782,2.783c0.801,0.8 0.802,1.314 0.007,2.108z" fill="rgb(219,209,198)"/>
                </g>
            </g>
            <g id="svg_47"/>
            <g id="svg_48"/>
            <g id="svg_55"/>
            <g id="svg_56"/>
            <g id="svg_57" transform="matrix(0.9975971285838278,-0.06928180887723633,0.06928180887723633,0.9975971285838278,930.8725159460502,525.7830173237226) ">
                <g id="svg_58">
                    <path id="svg_59" d="m-293.23568,-168.27609c-43.06319,-55.37084 -99.28394,-8.57614 -65.58335,27.84344c12.42587,13.94594 106.53115,118.82892 230.33359,179.09165c-2,13 -28.51456,154.341 -28.51456,154.341c0,0 -2,23 15,27c-5,8 -46,94 64,167c-5,11 -37,55 -8,63c29,8 50,8 63,-16c13,-24 52,-61 13,-86c-39,-25 -68,-60 -57,-114c-1,-4 -16,-4 -16,-4c0,0 48,6 48,6c0,0 18,114 147,122c3,11 8,56 35,50c27,-6 33,-22 33,-43c0,-21 1,-92 -30,-90c-31,2 -88,9 -94,-27c-3,-1 -19,-2 -19,-2c0,0 34.608,6.778 38,-19c5,-38 18,-127 18,-127c0,0 -30,-11 -30,-11c0,0 85.06,-1.33794 109,129c9,49 73,26 69,-12c-4,-38 -30,-151 -134,-179c-6,-14 -19,-63 -112,-73c-23,-1 -85.227,-40.95433 -113.227,7.04567c-5,-3 -161.20125,-105.2689 -175.00868,-129.32176z" fill="rgb(255,255,255)"/>
                    <path id="svg_60" d="m-293.23568,-168.27609c-43.06319,-55.37084 -99.28394,-8.57614 -65.58335,27.84344c12.42587,13.94594 106.53115,118.82892 230.33359,179.09165c-2,13 -28.51456,154.341 -28.51456,154.341c0,0 -2,23 15,27c-5,8 -46,94 64,167c-5,11 -37,55 -8,63c29,8 50,8 63,-16c13,-24 52,-61 13,-86c-39,-25 -68,-60 -57,-114c-1,-4 -16,-4 -16,-4c0,0 48,6 48,6c0,0 18,114 147,122c3,11 8,56 35,50c27,-6 33,-22 33,-43c0,-21 1,-92 -30,-90c-31,2 -88,9 -94,-27c-3,-1 -19,-2 -19,-2c0,0 34.608,6.778 38,-19c5,-38 18,-127 18,-127c0,0 -30,-11 -30,-11c0,0 85.06,-1.33794 109,129c9,49 73,26 69,-12c-4,-38 -30,-151 -134,-179c-6,-14 -19,-63 -112,-73c-23,-1 -85.227,-40.95433 -113.227,7.04567c-5,-3 -161.20125,-105.2689 -175.00868,-129.32176z" stroke-width="16" stroke="rgb(84,28,5)" fill-opacity="0" stroke-linejoin="round"/>
                </g>
            </g>
            <g id="svg_61" transform="matrix(3.9510506512606467,-0.6238579575294521,0.6238579575294521,3.9510506512606467,37.354995091650494,185.94126308182877) ">
                <g id="svg_62" transform="matrix(1,0,0,1,197.755,145.352) ">
                    <path id="svg_63" d="m15.826,-10.771c0,0 -24.147,-6.471 -24.147,-6.471c-3.734,-1 -7.573,1.216 -8.573,4.95c0,0 -3.882,14.488 -3.882,14.488c-1.001,3.734 1.215,7.573 4.95,8.573c0,0 24.148,6.471 24.148,6.471c3.733,1.001 7.572,-1.215 8.573,-4.949c0,0 3.882,-14.488 3.882,-14.488c1,-3.734 -1.216,-7.573 -4.951,-8.574z" fill="rgb(221,209,198)"/>
                </g>
                <g id="svg_64" transform="matrix(1,0,0,1,198.79,141.488) ">
                    <path id="svg_65" d="m14.602,-10.063c0,0 -22.217,-5.953 -22.217,-5.953c-3.734,-1.001 -7.572,1.215 -8.573,4.949c0,0 -3.365,12.558 -3.365,12.558c-1,3.734 1.216,7.572 4.95,8.573c0,0 22.218,5.952 22.218,5.952c3.733,1.001 7.572,-1.215 8.573,-4.949c0,0 3.363,-12.557 3.363,-12.557c1.001,-3.735 -1.214,-7.573 -4.949,-8.573z" fill="rgb(255,255,255)"/>
                </g>
                <g id="svg_66" transform="matrix(1,0,0,1,198.791,141.487) ">
                    <path id="svg_67" d="m15.826,-10.77c0,0 -24.148,-6.471 -24.148,-6.471c-3.734,-1.001 -7.573,1.215 -8.573,4.949c0,0 -3.882,14.489 -3.882,14.489c-1,3.734 1.216,7.572 4.951,8.573c0,0 24.148,6.472 24.148,6.472c3.734,1 7.57,-1.217 8.571,-4.951c0,0 3.884,-14.489 3.884,-14.489c1,-3.734 -1.217,-7.572 -4.951,-8.572zm1.087,7.537c0,0 -3.884,14.489 -3.884,14.489c-0.429,1.598 -2.076,2.55 -3.674,2.121c0,0 -24.147,-6.471 -24.147,-6.471c-1.598,-0.428 -2.549,-2.076 -2.121,-3.674c0,0 3.882,-14.488 3.882,-14.488c0.429,-1.599 2.076,-2.55 3.674,-2.122c0,0 24.147,6.471 24.147,6.471c1.599,0.428 2.551,2.076 2.123,3.674z" fill="rgb(84,28,5)"/>
                </g>
                <g id="svg_68" transform="matrix(1,0,0,1,192.023,139.681) ">
                    <path id="svg_69" d="m0,-2.5c1.381,0 2.5,1.12 2.5,2.5c0,1.381 -1.119,2.5 -2.5,2.5c-1.381,0 -2.5,-1.119 -2.5,-2.5c0,-1.38 1.119,-2.5 2.5,-2.5z" fill="rgb(255,170,76)"/>
                </g>
                <g id="svg_70" transform="matrix(1,0,0,1,198.993,141.69) ">
                    <path id="svg_71" d="m-5.541,-7.327c-2.935,-0.786 -5.95,0.955 -6.736,3.89c-0.786,2.934 0.955,5.949 3.889,6.736c2.935,0.786 5.95,-0.955 6.736,-3.891c0.786,-2.932 -0.955,-5.949 -3.889,-6.735zm0.018,5.703c-0.215,0.8 -1.037,1.273 -1.837,1.06c-0.801,-0.215 -1.275,-1.036 -1.062,-1.836c0.215,-0.801 1.037,-1.277 1.838,-1.064c0.8,0.216 1.275,1.039 1.061,1.84zm16.886,-1.174c0,0 -6.763,-1.811 -6.763,-1.811c-1.066,-0.285 -2.163,0.347 -2.449,1.414c-0.286,1.067 0.348,2.164 1.414,2.45c0,0 6.762,1.812 6.762,1.812c1.067,0.286 2.164,-0.348 2.449,-1.415c0.287,-1.067 -0.346,-2.164 -1.413,-2.45zm-1.812,6.762c0,0 -6.762,-1.812 -6.762,-1.812c-1.066,-0.287 -2.163,0.348 -2.449,1.414c-0.286,1.067 0.347,2.164 1.414,2.449c0,0 6.762,1.812 6.762,1.812c1.066,0.285 2.163,-0.347 2.449,-1.414c0.286,-1.066 -0.348,-2.163 -1.414,-2.449z" fill="rgb(84,28,7)"/>
                </g>
            </g>
            <g id="svg_72" transform="matrix(3.8641954687899385,-1.0334376512317072,1.0334376512317072,3.8641954687899385,-2.799505548785419,281.87501897177407) ">
                <g id="svg_73" transform="matrix(1,0,0,1,218.865,80.092) ">
                    <path id="svg_74" d="m11.128,-41.535c-22.938,-6.146 -46.518,7.467 -52.664,30.405c-6.146,22.939 7.466,46.519 30.406,52.665c22.938,6.146 46.518,-7.466 52.664,-30.405c6.147,-22.939 -7.467,-46.519 -30.406,-52.665z" fill="rgb(255,255,255)"/>
                </g>
                <g id="svg_75" transform="matrix(1,0,0,1,216.38,95.424) ">
                    <path id="svg_76" d="m-6.056,16.543c-20.198,-5.412 -32.613,-25.354 -29.034,-45.566c-0.396,1.089 -0.757,2.198 -1.062,3.339c-5.718,21.338 6.945,43.271 28.284,48.989c21.338,5.718 43.271,-6.945 48.988,-28.284c0.305,-1.14 0.548,-2.281 0.75,-3.423c-7.006,19.294 -27.728,30.357 -47.926,24.945z" fill="rgb(219,209,198)"/>
                </g>
                <g id="svg_77" transform="matrix(1,0,0,1,218.865,80.092) ">
                    <path id="svg_78" d="m11.128,-41.535c-22.938,-6.146 -46.518,7.467 -52.664,30.405c-6.146,22.939 7.466,46.519 30.406,52.665c22.938,6.146 46.518,-7.466 52.664,-30.405c6.147,-22.939 -7.467,-46.519 -30.406,-52.665zm26.543,51.629c-5.574,20.806 -26.961,33.152 -47.767,27.578c-20.805,-5.575 -33.151,-26.96 -27.576,-47.765c5.574,-20.806 26.96,-33.153 47.765,-27.578c20.806,5.574 33.153,26.96 27.578,47.765z" fill="rgb(84,28,5)"/>
                </g>
            </g>
            <g id="svg_79" transform="matrix(3.3030151691500613,-1.297280479296822,1.4562015786362634,3.7076453244582686,106.05562446074555,355.3965239844652) ">
                <g id="svg_80" transform="matrix(1,0,0,1,249.997,89.468) ">
                    <path id="svg_81" d="m3.883,-14.488c-5.067,-1.358 -10.915,4.028 -13.058,12.03c-2.146,8.002 0.225,15.589 5.294,16.947c5.066,1.357 10.914,-4.028 13.058,-12.03c2.144,-8.001 -0.226,-15.589 -5.294,-16.947zm1.43,15.913c-1.604,5.984 -5.702,9.86 -8.158,9.202c-2.457,-0.658 -4.07,-6.064 -2.467,-12.049c1.604,-5.985 5.703,-9.86 8.16,-9.202c2.456,0.658 4.069,6.065 2.465,12.049z" fill="rgb(84,28,5)"/>
                </g>
                <g id="svg_82" transform="matrix(1,0,0,1,254.819,90.766) ">
                    <path id="svg_83" d="m-8.21,-2.2c2.001,-7.468 7.299,-12.538 11.833,-11.323c4.534,1.215 6.588,8.256 4.587,15.724c-2.001,7.468 -7.299,12.536 -11.833,11.322c-4.534,-1.215 -6.588,-8.254 -4.587,-15.723z" fill="rgb(255,255,255)"/>
                </g>
                <g id="svg_84" transform="matrix(1,0,0,1,254.828,90.762) ">
                    <path id="svg_85" d="m3.882,-14.488c-5.068,-1.358 -10.914,4.028 -13.058,12.03c-2.145,8.002 0.225,15.59 5.294,16.947c5.066,1.358 10.915,-4.028 13.058,-12.03c2.145,-8.001 -0.226,-15.589 -5.294,-16.947zm1.431,15.912c-1.604,5.984 -5.703,9.861 -8.159,9.203c-2.456,-0.658 -4.069,-6.064 -2.466,-12.049c1.604,-5.983 5.702,-9.86 8.159,-9.202c2.456,0.658 4.07,6.064 2.466,12.048z" fill="rgb(84,30,7)"/>
                </g>
            </g>
            <g id="svg_86" transform="matrix(3.975104692639233,-1.001482473614767,0.9707196463464465,3.8530002502202136,-7.447381383167453,271.49736590004426) ">
                <g id="svg_87" transform="matrix(1,0,0,1,204.375,76.209) ">
                    <path id="svg_88" d="m10.784,-20.922c0,0 -9.66,-2.588 -9.66,-2.588c-12.271,-3.288 -24.882,3.993 -28.17,16.264c-3.288,12.27 3.994,24.881 16.263,28.169c0,0 9.66,2.588 9.66,2.588c12.271,3.287 24.882,-3.993 28.17,-16.264c3.287,-12.269 -3.994,-24.882 -16.263,-28.169zm12.399,27.134c-2.712,10.12 -13.15,16.146 -23.272,13.436c0,0 -9.658,-2.589 -9.658,-2.589c-10.119,-2.711 -16.146,-13.15 -13.435,-23.27c2.712,-10.12 13.15,-16.146 23.271,-13.436c0,0 9.658,2.588 9.658,2.588c10.12,2.712 16.148,13.152 13.436,23.271z" fill="rgb(84,28,5)"/>
                </g>
                <g id="svg_89" transform="matrix(1,0,0,1,200.072,70.49) ">
                    <path id="svg_90" d="m3.356,-10.063c-1.052,-0.282 -2.107,-0.438 -3.154,-0.488c0,0 -14.062,8.118 -14.062,8.118c-0.479,0.932 -0.873,1.924 -1.155,2.977c-0.229,0.854 -0.362,1.71 -0.438,2.563c0,0 21.542,-12.438 21.542,-12.438c0,0 -2.733,-0.732 -2.733,-0.732zm9.66,2.588c0,0 -2.731,-0.732 -2.731,-0.732c0,0 -25.647,14.806 -25.647,14.806c0.203,1.373 0.594,2.702 1.155,3.952c0,0 29.661,-17.125 29.661,-17.125c-0.776,-0.36 -1.584,-0.673 -2.438,-0.901z" fill="rgb(255,170,76)"/>
                </g>
            </g>
            <g id="svg_91" transform="matrix(5.5,0,0,5.5,-4228.25,-2439.25) " clip-path="url(#cp_v4RqGu23)">
                <g id="svg_92" opacity="0" transform="matrix(0.6,0,0,0.6,746.7838,474.5372) ">
                    <g id="svg_93" transform="matrix(0.99342,0,0,0.99342,89.767,22.083) ">
                        <path id="svg_94" d="m0,-19.2665c10.63318,0 19.2665,8.63332 19.2665,19.2665c0,10.63318 -8.63332,19.2665 -19.2665,19.2665c-10.63318,0 -19.2665,-8.63332 -19.2665,-19.2665c0,-10.63318 8.63332,-19.2665 19.2665,-19.2665z" fill="rgb(252,209,114)"/>
                        <path id="svg_95" d="m0,-19.2665c10.63318,0 19.2665,8.63332 19.2665,19.2665c0,10.63318 -8.63332,19.2665 -19.2665,19.2665c-10.63318,0 -19.2665,-8.63332 -19.2665,-19.2665c0,-10.63318 8.63332,-19.2665 19.2665,-19.2665z" stroke-width="8" stroke="rgb(0,0,0)" stroke-miterlimit="4" fill-opacity="0"/>
                    </g>
                </g>
                <g id="svg_96" transform="matrix(0.6,0,0,0.6,746.7838,473.7872) ">
                    <g id="svg_97">
                        <path id="svg_98" stroke-width="3" stroke="rgb(219,209,198)" stroke-miterlimit="4" fill-opacity="0" stroke-linecap="round"/>
                    </g>
                </g>
                <g id="svg_99" transform="matrix(0.4242640687119285,0.4242640687119285,-0.4242640687119285,0.4242640687119285,772.4584408591918,439.80273382868086) ">
                    <g id="svg_100">
                        <path id="svg_101" stroke-width="3" stroke="rgb(219,209,198)" stroke-miterlimit="4" fill-opacity="0" stroke-linecap="round"/>
                    </g>
                </g>
                <g id="svg_102" transform="matrix(3.6739403974420595e-17,0.6,-0.6,3.6739403974420595e-17,814.6438,433.92679999999996) ">
                    <g id="svg_103">
                        <path id="svg_104" stroke-width="3" stroke="rgb(219,209,198)" stroke-miterlimit="4" fill-opacity="0" stroke-linecap="round"/>
                    </g>
                </g>
                <g id="svg_105" transform="matrix(-0.42426406871192845,0.4242640687119285,-0.4242640687119285,-0.42426406871192845,848.6282661713192,459.6014408591917) ">
                    <g id="svg_106">
                        <path id="svg_107" stroke-width="3" stroke="rgb(219,209,198)" stroke-miterlimit="4" fill-opacity="0" stroke-linecap="round"/>
                    </g>
                </g>
                <g id="svg_108" transform="matrix(-0.6,7.347880794884119e-17,-7.347880794884119e-17,-0.6,854.5042000000001,501.78679999999997) ">
                    <g id="svg_109">
                        <path id="svg_110" stroke-width="3" stroke="rgb(219,209,198)" stroke-miterlimit="4" fill-opacity="0" stroke-linecap="round"/>
                    </g>
                </g>
                <g id="svg_111" transform="matrix(-0.4242640687119286,-0.42426406871192845,0.42426406871192845,-0.4242640687119286,828.8295591408083,535.7712661713191) ">
                    <g id="svg_112">
                        <path id="svg_113" stroke-width="3" stroke="rgb(219,209,198)" stroke-miterlimit="4" fill-opacity="0" stroke-linecap="round"/>
                    </g>
                </g>
                <g id="svg_114" transform="matrix(-1.1021821192326178e-16,-0.6,0.6,-1.1021821192326178e-16,786.6442000000001,541.6472) ">
                    <g id="svg_115">
                        <path id="svg_116" stroke-width="3" stroke="rgb(219,209,198)" stroke-miterlimit="4" fill-opacity="0" stroke-linecap="round"/>
                    </g>
                </g>
                <g id="svg_117" transform="matrix(0.4242640687119284,-0.4242640687119286,0.4242640687119286,0.4242640687119284,752.6597338286809,515.9725591408082) ">
                    <g id="svg_118">
                        <path id="svg_119" stroke-width="3" stroke="rgb(219,209,198)" stroke-miterlimit="4" fill-opacity="0" stroke-linecap="round"/>
                    </g>
                </g>
            </g>
            <g id="svg_120" transform="matrix(4.22,0,0,4.22,-2819.6099999999997,-1723.9699999999998) " clip-path="url(#cp_j1ls7Puw)">
                <g id="svg_121" opacity="0" transform="matrix(0.6,0,0,0.6,746.7838,474.5372) ">
                    <g id="svg_122" transform="matrix(0.99342,0,0,0.99342,89.767,22.083) ">
                        <path id="svg_123" d="m0,-19.2665c10.63318,0 19.2665,8.63332 19.2665,19.2665c0,10.63318 -8.63332,19.2665 -19.2665,19.2665c-10.63318,0 -19.2665,-8.63332 -19.2665,-19.2665c0,-10.63318 8.63332,-19.2665 19.2665,-19.2665z" fill="rgb(252,209,114)"/>
                        <path id="svg_124" d="m0,-19.2665c10.63318,0 19.2665,8.63332 19.2665,19.2665c0,10.63318 -8.63332,19.2665 -19.2665,19.2665c-10.63318,0 -19.2665,-8.63332 -19.2665,-19.2665c0,-10.63318 8.63332,-19.2665 19.2665,-19.2665z" stroke-width="8" stroke="rgb(0,0,0)" stroke-miterlimit="4" fill-opacity="0"/>
                    </g>
                </g>
                <g id="svg_125" transform="matrix(0.6,0,0,0.6,746.7838,473.7872) ">
                    <g id="svg_126">
                        <path id="svg_127" stroke-width="3" stroke="rgb(219,209,198)" stroke-miterlimit="4" fill-opacity="0" stroke-linecap="round"/>
                    </g>
                </g>
                <g id="svg_128" transform="matrix(0.4242640687119285,0.4242640687119285,-0.4242640687119285,0.4242640687119285,772.4584408591918,439.80273382868086) ">
                    <g id="svg_129">
                        <path id="svg_130" stroke-width="3" stroke="rgb(219,209,198)" stroke-miterlimit="4" fill-opacity="0" stroke-linecap="round"/>
                    </g>
                </g>
                <g id="svg_131" transform="matrix(3.6739403974420595e-17,0.6,-0.6,3.6739403974420595e-17,814.6438,433.92679999999996) ">
                    <g id="svg_132">
                        <path id="svg_133" stroke-width="3" stroke="rgb(219,209,198)" stroke-miterlimit="4" fill-opacity="0" stroke-linecap="round"/>
                    </g>
                </g>
                <g id="svg_134" transform="matrix(-0.42426406871192845,0.4242640687119285,-0.4242640687119285,-0.42426406871192845,848.6282661713192,459.6014408591917) ">
                    <g id="svg_135">
                        <path id="svg_136" stroke-width="3" stroke="rgb(219,209,198)" stroke-miterlimit="4" fill-opacity="0" stroke-linecap="round"/>
                    </g>
                </g>
                <g id="svg_137" transform="matrix(-0.6,7.347880794884119e-17,-7.347880794884119e-17,-0.6,854.5042000000001,501.78679999999997) ">
                    <g id="svg_138">
                        <path id="svg_139" stroke-width="3" stroke="rgb(219,209,198)" stroke-miterlimit="4" fill-opacity="0" stroke-linecap="round"/>
                    </g>
                </g>
                <g id="svg_140" transform="matrix(-0.4242640687119286,-0.42426406871192845,0.42426406871192845,-0.4242640687119286,828.8295591408083,535.7712661713191) ">
                    <g id="svg_141">
                        <path id="svg_142" stroke-width="3" stroke="rgb(219,209,198)" stroke-miterlimit="4" fill-opacity="0" stroke-linecap="round"/>
                    </g>
                </g>
                <g id="svg_143" transform="matrix(-1.1021821192326178e-16,-0.6,0.6,-1.1021821192326178e-16,786.6442000000001,541.6472) ">
                    <g id="svg_144">
                        <path id="svg_145" stroke-width="3" stroke="rgb(219,209,198)" stroke-miterlimit="4" fill-opacity="0" stroke-linecap="round"/>
                    </g>
                </g>
                <g id="svg_146" transform="matrix(0.4242640687119284,-0.4242640687119286,0.4242640687119286,0.4242640687119284,752.6597338286809,515.9725591408082) ">
                    <g id="svg_147">
                        <path id="svg_148" stroke-width="3" stroke="rgb(219,209,198)" stroke-miterlimit="4" fill-opacity="0" stroke-linecap="round"/>
                    </g>
                </g>
            </g>
            <g id="svg_149" transform="matrix(5.5,0,0,5.5,-2840.25,-2025.25) " clip-path="url(#cp_m055SUW3)">
                <g id="svg_150" opacity="0" transform="matrix(0.6,0,0,0.6,746.7838,474.5372) ">
                    <g id="svg_151" transform="matrix(0.99342,0,0,0.99342,89.767,22.083) ">
                        <path id="svg_152" d="m0,-19.2665c10.63318,0 19.2665,8.63332 19.2665,19.2665c0,10.63318 -8.63332,19.2665 -19.2665,19.2665c-10.63318,0 -19.2665,-8.63332 -19.2665,-19.2665c0,-10.63318 8.63332,-19.2665 19.2665,-19.2665z" fill="rgb(252,209,114)"/>
                        <path id="svg_153" d="m0,-19.2665c10.63318,0 19.2665,8.63332 19.2665,19.2665c0,10.63318 -8.63332,19.2665 -19.2665,19.2665c-10.63318,0 -19.2665,-8.63332 -19.2665,-19.2665c0,-10.63318 8.63332,-19.2665 19.2665,-19.2665z" stroke-width="8" stroke="rgb(0,0,0)" stroke-miterlimit="4" fill-opacity="0"/>
                    </g>
                </g>
                <g id="svg_154" transform="matrix(0.6,0,0,0.6,746.7838,473.7872) ">
                    <g id="svg_155">
                        <path id="svg_156" stroke-width="3" stroke="rgb(219,209,198)" stroke-miterlimit="4" fill-opacity="0" stroke-linecap="round"/>
                    </g>
                </g>
                <g id="svg_157" transform="matrix(0.4242640687119285,0.4242640687119285,-0.4242640687119285,0.4242640687119285,772.4584408591918,439.80273382868086) ">
                    <g id="svg_158">
                        <path id="svg_159" stroke-width="3" stroke="rgb(219,209,198)" stroke-miterlimit="4" fill-opacity="0" stroke-linecap="round"/>
                    </g>
                </g>
                <g id="svg_160" transform="matrix(3.6739403974420595e-17,0.6,-0.6,3.6739403974420595e-17,814.6438,433.92679999999996) ">
                    <g id="svg_161">
                        <path id="svg_162" stroke-width="3" stroke="rgb(219,209,198)" stroke-miterlimit="4" fill-opacity="0" stroke-linecap="round"/>
                    </g>
                </g>
                <g id="svg_163" transform="matrix(-0.42426406871192845,0.4242640687119285,-0.4242640687119285,-0.42426406871192845,848.6282661713192,459.6014408591917) ">
                    <g id="svg_164">
                        <path id="svg_165" stroke-width="3" stroke="rgb(219,209,198)" stroke-miterlimit="4" fill-opacity="0" stroke-linecap="round"/>
                    </g>
                </g>
                <g id="svg_166" transform="matrix(-0.6,7.347880794884119e-17,-7.347880794884119e-17,-0.6,854.5042000000001,501.78679999999997) ">
                    <g id="svg_167">
                        <path id="svg_168" stroke-width="3" stroke="rgb(219,209,198)" stroke-miterlimit="4" fill-opacity="0" stroke-linecap="round"/>
                    </g>
                </g>
                <g id="svg_169" transform="matrix(-0.4242640687119286,-0.42426406871192845,0.42426406871192845,-0.4242640687119286,828.8295591408083,535.7712661713191) ">
                    <g id="svg_170">
                        <path id="svg_171" stroke-width="3" stroke="rgb(219,209,198)" stroke-miterlimit="4" fill-opacity="0" stroke-linecap="round"/>
                    </g>
                </g>
                <g id="svg_172" transform="matrix(-1.1021821192326178e-16,-0.6,0.6,-1.1021821192326178e-16,786.6442000000001,541.6472) ">
                    <g id="svg_173">
                        <path id="svg_174" stroke-width="3" stroke="rgb(219,209,198)" stroke-miterlimit="4" fill-opacity="0" stroke-linecap="round"/>
                    </g>
                </g>
                <g id="svg_175" transform="matrix(0.4242640687119284,-0.4242640687119286,0.4242640687119286,0.4242640687119284,752.6597338286809,515.9725591408082) ">
                    <g id="svg_176">
                        <path id="svg_177" stroke-width="3" stroke="rgb(219,209,198)" stroke-miterlimit="4" fill-opacity="0" stroke-linecap="round"/>
                    </g>
                </g>
            </g>
        </g>
    </g>
</svg>